<?xml version="1.0" encoding="utf-8"?>
<!-- Generator: Adobe Illustrator 19.2.1, SVG Export Plug-In . SVG Version: 6.00 Build 0)  -->
<svg version="1.1" id="Layer_1" xmlns="http://www.w3.org/2000/svg" xmlns:xlink="http://www.w3.org/1999/xlink" x="0px" y="0px"
	 viewBox="0 0 276.9 33.1" style="enable-background:new 0 0 276.9 33.1;" xml:space="preserve">
<style type="text/css">
	.st0{fill:#00AEEF;}
	.st1{fill:#FFFFFF;}
</style>
<g>
	<path class="st0" d="M148.1,23.4c-2.5,6.1-8.2,9.7-15,9.7c-9.3,0-16.4-6.6-16.4-16.6c0-9.9,7-16.5,16.4-16.5c7.3,0,12.5,4,14.6,8.9
		l-5,1.3c-1.3-2.3-4.3-5.5-9.8-5.5c-6.6,0-11.2,4.6-11.2,11.8c0,7.3,4.8,11.8,11.1,11.8c4.9,0,8.6-2.5,10.3-6.3L148.1,23.4z"/>
	<path class="st1" d="M33.3,0.6c9.7,0,16.8,6.3,16.8,16.1c0,9.8-7.1,15.8-16.7,15.8H21.5V0.6H33.3z M33.3,27.8
		c6.3,0,11.9-3.5,11.9-11.1c0-7.6-5.5-11.4-12.1-11.4h-6.6v22.5H33.3z"/>
	<path class="st1" d="M99,32.5L86.8,0.6h5.6l6,16.2c2.4,6.4,3.7,10.1,3.7,10.1h0.1c0-0.1,1.4-3.7,3.7-10L112,0.6h5.4l-12.2,31.9H99z
		"/>
	<path class="st0" d="M202.8,0.6L215,32.5h-5.6l-6-16.2c-2.4-6.4-3.7-10.1-3.7-10.1h-0.1c0,0.1-1.4,3.7-3.7,10l-6.1,16.4h-5.4
		l12.2-31.9H202.8z"/>
	<path class="st0" d="M266.4,5.3v27.2h-5V5.3h-7.2l3.4-4.7h19.4v4.7H266.4z"/>
	<g>
		<polygon class="st1" points="88.8,5.3 88.8,0.6 58.4,0.6 58.4,13.7 63.4,11.9 63.4,5.3 		"/>
		<polygon class="st1" points="58.4,13.7 58.4,32.5 80.5,32.5 80.5,27.8 63.4,27.8 63.4,18.3 76.4,18.3 76.4,13.7 66.3,13.7 
			63.4,13.7 		"/>
	</g>
	<g>
		<path class="st0" d="M172.2,19.7c4.3-1.1,6.9-4.1,6.9-8.9c0-6.3-4.6-10.2-12.2-10.2h-10.5v15.8l5-1.7V5.2h5.7c4.3,0,6.8,2,6.8,5.8
			c0,4-2.6,5.5-6.6,5.5h-5.9v-0.2h-5v16.1h5V20.7h3.2c0.6,0,1.9,0,2.5,0l6.8,11.9h6L172.2,19.7z"/>
	</g>
	<g>
		<polygon class="st0" points="252.5,5.3 252.5,0.6 222.3,0.6 222.3,14.3 227.3,12.6 227.3,5.3 		"/>
		<polygon class="st0" points="222.3,32.5 227.3,32.5 227.3,19.1 240.6,19.1 240.6,14.4 227.3,14.4 227.3,14.3 222.3,14.3 		"/>
	</g>
	<polygon class="st0" points="4.6,9.6 10.3,1.3 5.8,1.3 0,9.6 5.3,17.3 7.6,14 	"/>
	<polygon class="st0" points="14.4,1.3 14.3,1.3 12.1,4.5 15.2,9 9.5,17.3 13.9,17.3 19.8,8.9 	"/>
</g>
</svg>
